<svg viewBox="0 0 330 200" xmlns="http://www.w3.org/2000/svg"><g><g><g><g><g><line x1="46" y1="178" x2="41" y2="178" style="visibility: inherit;" fill="rgb(0, 0, 0)" stroke="rgb(204, 204, 204)" stroke-width="1px"></line><line x1="46" y1="158.22222222222229" x2="41" y2="158.22222222222229" style="visibility: inherit;" fill="rgb(0, 0, 0)" stroke="rgb(204, 204, 204)" stroke-width="1px"></line><line x1="46" y1="138.44444444444443" x2="41" y2="138.44444444444443" style="visibility: inherit;" fill="rgb(0, 0, 0)" stroke="rgb(204, 204, 204)" stroke-width="1px"></line><line x1="46" y1="118.66666666666673" x2="41" y2="118.66666666666673" style="visibility: inherit;" fill="rgb(0, 0, 0)" stroke="rgb(204, 204, 204)" stroke-width="1px"></line><line x1="46" y1="98.88888888888886" x2="41" y2="98.88888888888886" style="visibility: inherit;" fill="rgb(0, 0, 0)" stroke="rgb(204, 204, 204)" stroke-width="1px"></line><line x1="46" y1="79.11111111111114" x2="41" y2="79.11111111111114" style="visibility: inherit;" fill="rgb(0, 0, 0)" stroke="rgb(204, 204, 204)" stroke-width="1px"></line><line x1="46" y1="59.33333333333346" x2="41" y2="59.33333333333346" style="visibility: inherit;" fill="rgb(0, 0, 0)" stroke="rgb(204, 204, 204)" stroke-width="1px"></line><line x1="46" y1="39.55555555555557" x2="41" y2="39.55555555555557" style="visibility: inherit;" fill="rgb(0, 0, 0)" stroke="rgb(204, 204, 204)" stroke-width="1px"></line><line x1="46" y1="19.777777777777857" x2="41" y2="19.777777777777857" style="visibility: inherit;" fill="rgb(0, 0, 0)" stroke="rgb(204, 204, 204)" stroke-width="1px"></line><line x1="46" y1="0" x2="41" y2="0" style="visibility: inherit;" fill="rgb(0, 0, 0)" stroke="rgb(204, 204, 204)" stroke-width="1px"></line></g><g transform="translate(36, 0)"><text x="0" y="178" dx="0em" dy="0.3em" style="text-anchor: end; visibility: hidden; font-family: &quot;Helvetica Neue&quot;, sans-serif; font-size: 12px; font-weight: 200;" fill="rgb(50, 49, 63)" stroke="none" stroke-width="1px">8</text><text x="0" y="158.22222222222229" dx="0em" dy="0.3em" style="text-anchor: end; visibility: inherit; font-family: &quot;Helvetica Neue&quot;, sans-serif; font-size: 12px; font-weight: 200;" fill="rgb(50, 49, 63)" stroke="none" stroke-width="1px">8.2</text><text x="0" y="138.44444444444443" dx="0em" dy="0.3em" style="text-anchor: end; visibility: hidden; font-family: &quot;Helvetica Neue&quot;, sans-serif; font-size: 12px; font-weight: 200;" fill="rgb(50, 49, 63)" stroke="none" stroke-width="1px">8.4</text><text x="0" y="118.66666666666673" dx="0em" dy="0.3em" style="text-anchor: end; visibility: inherit; font-family: &quot;Helvetica Neue&quot;, sans-serif; font-size: 12px; font-weight: 200;" fill="rgb(50, 49, 63)" stroke="none" stroke-width="1px">8.6</text><text x="0" y="98.88888888888886" dx="0em" dy="0.3em" style="text-anchor: end; visibility: hidden; font-family: &quot;Helvetica Neue&quot;, sans-serif; font-size: 12px; font-weight: 200;" fill="rgb(50, 49, 63)" stroke="none" stroke-width="1px">8.8</text><text x="0" y="79.11111111111114" dx="0em" dy="0.3em" style="text-anchor: end; visibility: inherit; font-family: &quot;Helvetica Neue&quot;, sans-serif; font-size: 12px; font-weight: 200;" fill="rgb(50, 49, 63)" stroke="none" stroke-width="1px">9</text><text x="0" y="59.33333333333346" dx="0em" dy="0.3em" style="text-anchor: end; visibility: hidden; font-family: &quot;Helvetica Neue&quot;, sans-serif; font-size: 12px; font-weight: 200;" fill="rgb(50, 49, 63)" stroke="none" stroke-width="1px">9.2</text><text x="0" y="39.55555555555557" dx="0em" dy="0.3em" style="text-anchor: end; visibility: inherit; font-family: &quot;Helvetica Neue&quot;, sans-serif; font-size: 12px; font-weight: 200;" fill="rgb(50, 49, 63)" stroke="none" stroke-width="1px">9.4</text><text x="0" y="19.777777777777857" dx="0em" dy="0.3em" style="text-anchor: end; visibility: hidden; font-family: &quot;Helvetica Neue&quot;, sans-serif; font-size: 12px; font-weight: 200;" fill="rgb(50, 49, 63)" stroke="none" stroke-width="1px">9.6</text><text x="0" y="0" dx="0em" dy="0.3em" style="text-anchor: end; visibility: hidden; font-family: &quot;Helvetica Neue&quot;, sans-serif; font-size: 12px; font-weight: 200;" fill="rgb(50, 49, 63)" stroke="none" stroke-width="1px">9.8</text></g><line x1="46" y1="0" x2="46" y2="178" fill="rgb(0, 0, 0)" stroke="rgb(204, 204, 204)" stroke-width="1px"></line></g></g><g transform="translate(46, 0)" clip-path="url(#clip_0)"><clipPath id="clip_0"><rect width="283" height="177"></rect></clipPath><g><g><g><line x1="0" y1="0" x2="0" y2="178" fill="rgb(0, 0, 0)" stroke="rgb(60, 60, 60)" stroke-width="1px" opacity="0.25"></line><line x1="35.5" y1="0" x2="35.5" y2="178" fill="rgb(0, 0, 0)" stroke="rgb(60, 60, 60)" stroke-width="1px" opacity="0.25"></line><line x1="71" y1="0" x2="71" y2="178" fill="rgb(0, 0, 0)" stroke="rgb(60, 60, 60)" stroke-width="1px" opacity="0.25"></line><line x1="106.5" y1="0" x2="106.5" y2="178" fill="rgb(0, 0, 0)" stroke="rgb(60, 60, 60)" stroke-width="1px" opacity="0.25"></line><line x1="142" y1="0" x2="142" y2="178" fill="rgb(0, 0, 0)" stroke="rgb(60, 60, 60)" stroke-width="1px" opacity="0.25"></line><line x1="177.5" y1="0" x2="177.5" y2="178" fill="rgb(0, 0, 0)" stroke="rgb(60, 60, 60)" stroke-width="1px" opacity="0.25"></line><line x1="213" y1="0" x2="213" y2="178" fill="rgb(0, 0, 0)" stroke="rgb(60, 60, 60)" stroke-width="1px" opacity="0.25"></line><line x1="248.5" y1="0" x2="248.5" y2="178" fill="rgb(0, 0, 0)" stroke="rgb(60, 60, 60)" stroke-width="1px" opacity="0.25"></line><line x1="284" y1="0" x2="284" y2="178" fill="rgb(0, 0, 0)" stroke="rgb(60, 60, 60)" stroke-width="1px" opacity="0.25"></line></g><g><line x1="0" y1="178" x2="284" y2="178" fill="rgb(0, 0, 0)" stroke="rgb(60, 60, 60)" stroke-width="1px" opacity="0.25"></line><line x1="0" y1="158.22222222222229" x2="284" y2="158.22222222222229" fill="rgb(0, 0, 0)" stroke="rgb(60, 60, 60)" stroke-width="1px" opacity="0.25"></line><line x1="0" y1="138.44444444444443" x2="284" y2="138.44444444444443" fill="rgb(0, 0, 0)" stroke="rgb(60, 60, 60)" stroke-width="1px" opacity="0.25"></line><line x1="0" y1="118.66666666666673" x2="284" y2="118.66666666666673" fill="rgb(0, 0, 0)" stroke="rgb(60, 60, 60)" stroke-width="1px" opacity="0.25"></line><line x1="0" y1="98.88888888888886" x2="284" y2="98.88888888888886" fill="rgb(0, 0, 0)" stroke="rgb(60, 60, 60)" stroke-width="1px" opacity="0.25"></line><line x1="0" y1="79.11111111111114" x2="284" y2="79.11111111111114" fill="rgb(0, 0, 0)" stroke="rgb(60, 60, 60)" stroke-width="1px" opacity="0.25"></line><line x1="0" y1="59.33333333333346" x2="284" y2="59.33333333333346" fill="rgb(0, 0, 0)" stroke="rgb(60, 60, 60)" stroke-width="1px" opacity="0.25"></line><line x1="0" y1="39.55555555555557" x2="284" y2="39.55555555555557" fill="rgb(0, 0, 0)" stroke="rgb(60, 60, 60)" stroke-width="1px" opacity="0.25"></line><line x1="0" y1="19.777777777777857" x2="284" y2="19.777777777777857" fill="rgb(0, 0, 0)" stroke="rgb(60, 60, 60)" stroke-width="1px" opacity="0.25"></line><line x1="0" y1="0" x2="284" y2="0" fill="rgb(0, 0, 0)" stroke="rgb(60, 60, 60)" stroke-width="1px" opacity="0.25"></line></g></g></g><g><g><line x1="0" y1="969.1111111111109" x2="284" y2="969.1111111111109" fill="rgb(0, 0, 0)" stroke="rgb(153, 153, 153)" stroke-width="1.5px"></line></g></g><g><g><line x1="35.5" y1="0" x2="35.5" y2="178" fill="rgb(0, 0, 0)" stroke="rgb(153, 153, 153)" stroke-width="1.5px"></line></g></g><g><g><g><g><g><path style="fill: none;" stroke="rgb(238, 51, 119)" stroke-width="2px" d="M38.198,-1.103985892401738L39.547000000000004,8.69836616516119L40.895999999999994,13.351795620388543L42.245,14.689928902520137L43.594,10.339793311225122L44.943,16.25034565395785L46.292,32.27503161960183L47.641000000000005,35.52157741122781L48.989999999999995,36.172772725423215L50.339,44.551454332139826L51.687999999999995,40.864585452609646L53.037,50.7155060238309L54.386,55.89309819539393L55.735,33.62344445122619L57.084,71.09070481194395L58.433,81.79473368326826L59.782,63.71668412950308L61.131,64.03006892734108L62.48,77.39687834845654L63.829,71.48264800177685L65.178,86.18212085300026L66.527,86.79870520697702L67.87599999999999,87.76403978135855L69.225,85.66229629516606L70.574,76.1113688151042L71.92299999999999,88.8101018269857L73.272,91.57067955864804L74.621,84.69356664021815L75.97,100.24661933051217L77.319,88.99428494771324L78.668,99.6024971008301L80.017,93.9562895033095L81.366,88.2643426259359L82.715,102.61383925543893L84.064,102.6710840861003L85.41300000000001,106.21243604024254L86.762,104.55271318223744L88.111,99.26195165846086L89.46,113.17291704813641L90.809,107.75229369269479L92.158,103.97705841064456L93.50699999999999,102.2608451843262L94.85600000000001,100.94836362202965L96.205,112.65177218119305L97.554,99.66719224717885L98.903,115.50920401679147L100.252,111.48480754428442L101.601,122.60520532396106L102.95,118.82940419514976L104.299,113.12029329935712L105.648,117.03604719373918L106.99699999999999,107.4339105818007L108.346,117.00473700629342L109.695,110.14441087510853L111.04400000000001,115.07887755499948L112.393,118.67860603332522L113.742,128.80292489793567L115.091,122.59105915493438L116.44,114.70589023166235L117.789,98.10206010606557L119.13799999999999,128.57875527275934L120.48700000000001,121.35987091064456L121.836,125.29505221048993L123.185,118.8346854315864L124.534,126.11175770229767L125.883,123.18755594889325L127.232,130.69992616441516L128.581,122.83814557393394L129.93,114.72729810078941L131.279,116.0026223924425L132.62800000000001,123.46944194369848L133.977,121.8132084740533L135.326,123.80696953667537L136.675,114.14494747585724L138.024,134.75327512953018L139.37300000000002,128.1112715403239L140.722,124.01916207207576L142.071,130.43180910746258L143.42,124.18797302246097L144.769,133.87253464592828L146.118,121.52887047661677L147.46699999999998,134.76798714531793L148.816,123.57129436069067L150.16500000000002,126.79303720262317L151.51399999999998,130.12389416164825L152.863,133.46323882208932L154.21200000000002,132.00750372144913L155.56099999999998,124.92385673522952L156.91,121.88959778679744L158.25900000000001,125.20112164815268L159.608,129.04746500651044L160.957,133.99758678012427L162.306,135.36212624443903L163.655,130.29119618733725L165.004,137.88023863898385L166.353,139.63247744242352L167.702,139.74932479858398L169.051,137.14916462368438L170.4,133.07148424784344L171.749,128.8815775977241L173.098,133.23633427090118L174.447,140.91515774197052L175.796,124.27926296657989L177.145,132.22167672051324L178.49399999999997,138.9695879618327L179.843,139.24760733710397L181.192,140.69249704149036L182.54100000000003,134.32436328464087L183.89,133.1930469936795L185.239,137.09748395284018L186.58800000000002,142.59742016262481L187.93699999999998,138.38525687323678L189.286,143.363670984904L190.635,135.77698622809518L191.984,146.96792623731827L193.333,151.70500670539008L194.682,136.52484703063965L196.031,139.73216078016495L197.38,141.2486300998264L198.72899999999998,139.1594295501709L200.078,133.83000183105472L201.42700000000002,128.39928754170737L202.77599999999998,147.1771952311198L204.125,142.4687843322754L205.47400000000002,142.48990927802194L206.82299999999998,144.83506117926706L208.172,140.79274622599286L209.52100000000002,145.9527971479628L210.87,137.2581844329834L212.219,138.56670506795248L213.568,141.7106439802382L214.917,139.10737164815268L216.266,149.5147082010905L217.615,145.60376400417752L218.964,141.13395182291669L220.31300000000002,132.79685995313858L221.66199999999998,136.91660160488556L223.011,146.94114282396106L224.36,146.46828354729547L225.70899999999997,152.9168618520101L227.058,143.37225299411352L228.407,147.90364816453723L229.75600000000003,146.3338949415419L231.105,152.4949287838406L232.454,127.4092443254259L233.803,144.73292583889435L235.152,137.28996615939673L236.501,149.27771271599664L237.85,147.36203850640192L239.199,136.03699281480579L240.548,142.9050521850586L241.897,154.43776363796658L243.246,144.3065603044298L244.595,140.9693847232395L245.944,149.97030915154352L247.293,149.27299732632108L248.642,150.9972267150879L249.99099999999999,147.78085941738553L251.34,140.13004536098907L252.68900000000002,148.6664095984565L254.03799999999998,140.53321117824981L255.387,141.3378452724881L256.736,144.6064590877957L258.085,133.07572809855145L259.43399999999997,145.51935852898492L260.783,153.19073168436688L262.132,146.1643295288086L263.481,153.70055961608887L264.83,142.94164360894098L266.17900000000003,150.75004598829483L267.52799999999996,145.4546633826362L268.877,142.699272579617L270.226,148.47873708936905L271.575,145.11855040656198L272.924,146.94632975260419L274.273,134.66736072964142L275.622,148.15837351481122L276.971,136.15864986843536" fill="none"></path></g></g></g></g></g></g><g transform="translate(46, 178)" clip-path="url(#clip_1)"><clipPath id="clip_1"><rect width="283" height="21"></rect></clipPath><g><g><line x1="0" y1="0" x2="0" y2="5" style="visibility: inherit;" fill="rgb(0, 0, 0)" stroke="rgb(204, 204, 204)" stroke-width="1px"></line><line x1="35.5" y1="0" x2="35.5" y2="5" style="visibility: inherit;" fill="rgb(0, 0, 0)" stroke="rgb(204, 204, 204)" stroke-width="1px"></line><line x1="71" y1="0" x2="71" y2="5" style="visibility: inherit;" fill="rgb(0, 0, 0)" stroke="rgb(204, 204, 204)" stroke-width="1px"></line><line x1="106.5" y1="0" x2="106.5" y2="5" style="visibility: inherit;" fill="rgb(0, 0, 0)" stroke="rgb(204, 204, 204)" stroke-width="1px"></line><line x1="142" y1="0" x2="142" y2="5" style="visibility: inherit;" fill="rgb(0, 0, 0)" stroke="rgb(204, 204, 204)" stroke-width="1px"></line><line x1="177.5" y1="0" x2="177.5" y2="5" style="visibility: inherit;" fill="rgb(0, 0, 0)" stroke="rgb(204, 204, 204)" stroke-width="1px"></line><line x1="213" y1="0" x2="213" y2="5" style="visibility: inherit;" fill="rgb(0, 0, 0)" stroke="rgb(204, 204, 204)" stroke-width="1px"></line><line x1="248.5" y1="0" x2="248.5" y2="5" style="visibility: inherit;" fill="rgb(0, 0, 0)" stroke="rgb(204, 204, 204)" stroke-width="1px"></line><line x1="284" y1="0" x2="284" y2="5" style="visibility: inherit;" fill="rgb(0, 0, 0)" stroke="rgb(204, 204, 204)" stroke-width="1px"></line></g><g transform="translate(0, 8)"><text x="0" y="0" dx="0em" dy="0.95em" style="text-anchor: middle; visibility: hidden; font-family: &quot;Helvetica Neue&quot;, sans-serif; font-size: 12px; font-weight: 200;" fill="rgb(50, 49, 63)" stroke="none" stroke-width="1px">-500</text><text x="35.5" y="0" dx="0em" dy="0.95em" style="text-anchor: middle; visibility: inherit; font-family: &quot;Helvetica Neue&quot;, sans-serif; font-size: 12px; font-weight: 200;" fill="rgb(50, 49, 63)" stroke="none" stroke-width="1px">0</text><text x="71" y="0" dx="0em" dy="0.95em" style="text-anchor: middle; visibility: inherit; font-family: &quot;Helvetica Neue&quot;, sans-serif; font-size: 12px; font-weight: 200;" fill="rgb(50, 49, 63)" stroke="none" stroke-width="1px">500</text><text x="106.5" y="0" dx="0em" dy="0.95em" style="text-anchor: middle; visibility: inherit; font-family: &quot;Helvetica Neue&quot;, sans-serif; font-size: 12px; font-weight: 200;" fill="rgb(50, 49, 63)" stroke="none" stroke-width="1px">1k</text><text x="142" y="0" dx="0em" dy="0.95em" style="text-anchor: middle; visibility: inherit; font-family: &quot;Helvetica Neue&quot;, sans-serif; font-size: 12px; font-weight: 200;" fill="rgb(50, 49, 63)" stroke="none" stroke-width="1px">1.5k</text><text x="177.5" y="0" dx="0em" dy="0.95em" style="text-anchor: middle; visibility: inherit; font-family: &quot;Helvetica Neue&quot;, sans-serif; font-size: 12px; font-weight: 200;" fill="rgb(50, 49, 63)" stroke="none" stroke-width="1px">2k</text><text x="213" y="0" dx="0em" dy="0.95em" style="text-anchor: middle; visibility: inherit; font-family: &quot;Helvetica Neue&quot;, sans-serif; font-size: 12px; font-weight: 200;" fill="rgb(50, 49, 63)" stroke="none" stroke-width="1px">2.5k</text><text x="248.5" y="0" dx="0em" dy="0.95em" style="text-anchor: middle; visibility: inherit; font-family: &quot;Helvetica Neue&quot;, sans-serif; font-size: 12px; font-weight: 200;" fill="rgb(50, 49, 63)" stroke="none" stroke-width="1px">3k</text><text x="284" y="0" dx="0em" dy="0.95em" style="text-anchor: middle; visibility: hidden; font-family: &quot;Helvetica Neue&quot;, sans-serif; font-size: 12px; font-weight: 200;" fill="rgb(50, 49, 63)" stroke="none" stroke-width="1px">3.5k</text></g><line x1="0" y1="0" x2="284" y2="0" fill="rgb(0, 0, 0)" stroke="rgb(204, 204, 204)" stroke-width="1px"></line></g></g></g></g></svg>