<svg viewBox="0 0 330 200" xmlns="http://www.w3.org/2000/svg"><g><g><g><g><g><line x1="34" y1="178" x2="29" y2="178" style="visibility: inherit;" fill="rgb(0, 0, 0)" stroke="rgb(204, 204, 204)" stroke-width="1px"></line><line x1="34" y1="155.75" x2="29" y2="155.75" style="visibility: inherit;" fill="rgb(0, 0, 0)" stroke="rgb(204, 204, 204)" stroke-width="1px"></line><line x1="34" y1="133.5" x2="29" y2="133.5" style="visibility: inherit;" fill="rgb(0, 0, 0)" stroke="rgb(204, 204, 204)" stroke-width="1px"></line><line x1="34" y1="111.25" x2="29" y2="111.25" style="visibility: inherit;" fill="rgb(0, 0, 0)" stroke="rgb(204, 204, 204)" stroke-width="1px"></line><line x1="34" y1="89" x2="29" y2="89" style="visibility: inherit;" fill="rgb(0, 0, 0)" stroke="rgb(204, 204, 204)" stroke-width="1px"></line><line x1="34" y1="66.75" x2="29" y2="66.75" style="visibility: inherit;" fill="rgb(0, 0, 0)" stroke="rgb(204, 204, 204)" stroke-width="1px"></line><line x1="34" y1="44.5" x2="29" y2="44.5" style="visibility: inherit;" fill="rgb(0, 0, 0)" stroke="rgb(204, 204, 204)" stroke-width="1px"></line><line x1="34" y1="22.25" x2="29" y2="22.25" style="visibility: inherit;" fill="rgb(0, 0, 0)" stroke="rgb(204, 204, 204)" stroke-width="1px"></line><line x1="34" y1="0" x2="29" y2="0" style="visibility: inherit;" fill="rgb(0, 0, 0)" stroke="rgb(204, 204, 204)" stroke-width="1px"></line></g><g transform="translate(24, 0)"><text x="0" y="178" dx="0em" dy="0.3em" style="text-anchor: end; visibility: hidden; font-family: &quot;Helvetica Neue&quot;, sans-serif; font-size: 12px; font-weight: 200;" fill="rgb(50, 49, 63)" stroke="none" stroke-width="1px">20</text><text x="0" y="155.75" dx="0em" dy="0.3em" style="text-anchor: end; visibility: inherit; font-family: &quot;Helvetica Neue&quot;, sans-serif; font-size: 12px; font-weight: 200;" fill="rgb(50, 49, 63)" stroke="none" stroke-width="1px">25</text><text x="0" y="133.5" dx="0em" dy="0.3em" style="text-anchor: end; visibility: hidden; font-family: &quot;Helvetica Neue&quot;, sans-serif; font-size: 12px; font-weight: 200;" fill="rgb(50, 49, 63)" stroke="none" stroke-width="1px">30</text><text x="0" y="111.25" dx="0em" dy="0.3em" style="text-anchor: end; visibility: inherit; font-family: &quot;Helvetica Neue&quot;, sans-serif; font-size: 12px; font-weight: 200;" fill="rgb(50, 49, 63)" stroke="none" stroke-width="1px">35</text><text x="0" y="89" dx="0em" dy="0.3em" style="text-anchor: end; visibility: hidden; font-family: &quot;Helvetica Neue&quot;, sans-serif; font-size: 12px; font-weight: 200;" fill="rgb(50, 49, 63)" stroke="none" stroke-width="1px">40</text><text x="0" y="66.75" dx="0em" dy="0.3em" style="text-anchor: end; visibility: inherit; font-family: &quot;Helvetica Neue&quot;, sans-serif; font-size: 12px; font-weight: 200;" fill="rgb(50, 49, 63)" stroke="none" stroke-width="1px">45</text><text x="0" y="44.5" dx="0em" dy="0.3em" style="text-anchor: end; visibility: hidden; font-family: &quot;Helvetica Neue&quot;, sans-serif; font-size: 12px; font-weight: 200;" fill="rgb(50, 49, 63)" stroke="none" stroke-width="1px">50</text><text x="0" y="22.25" dx="0em" dy="0.3em" style="text-anchor: end; visibility: inherit; font-family: &quot;Helvetica Neue&quot;, sans-serif; font-size: 12px; font-weight: 200;" fill="rgb(50, 49, 63)" stroke="none" stroke-width="1px">55</text><text x="0" y="0" dx="0em" dy="0.3em" style="text-anchor: end; visibility: hidden; font-family: &quot;Helvetica Neue&quot;, sans-serif; font-size: 12px; font-weight: 200;" fill="rgb(50, 49, 63)" stroke="none" stroke-width="1px">60</text></g><line x1="34" y1="0" x2="34" y2="178" fill="rgb(0, 0, 0)" stroke="rgb(204, 204, 204)" stroke-width="1px"></line></g></g><g transform="translate(34, 0)" clip-path="url(#clip_0)"><clipPath id="clip_0"><rect width="295" height="177"></rect></clipPath><g><g><g><line x1="0" y1="0" x2="0" y2="178" fill="rgb(0, 0, 0)" stroke="rgb(60, 60, 60)" stroke-width="1px" opacity="0.25"></line><line x1="37" y1="0" x2="37" y2="178" fill="rgb(0, 0, 0)" stroke="rgb(60, 60, 60)" stroke-width="1px" opacity="0.25"></line><line x1="74" y1="0" x2="74" y2="178" fill="rgb(0, 0, 0)" stroke="rgb(60, 60, 60)" stroke-width="1px" opacity="0.25"></line><line x1="111" y1="0" x2="111" y2="178" fill="rgb(0, 0, 0)" stroke="rgb(60, 60, 60)" stroke-width="1px" opacity="0.25"></line><line x1="148" y1="0" x2="148" y2="178" fill="rgb(0, 0, 0)" stroke="rgb(60, 60, 60)" stroke-width="1px" opacity="0.25"></line><line x1="185" y1="0" x2="185" y2="178" fill="rgb(0, 0, 0)" stroke="rgb(60, 60, 60)" stroke-width="1px" opacity="0.25"></line><line x1="222" y1="0" x2="222" y2="178" fill="rgb(0, 0, 0)" stroke="rgb(60, 60, 60)" stroke-width="1px" opacity="0.25"></line><line x1="259" y1="0" x2="259" y2="178" fill="rgb(0, 0, 0)" stroke="rgb(60, 60, 60)" stroke-width="1px" opacity="0.25"></line><line x1="296" y1="0" x2="296" y2="178" fill="rgb(0, 0, 0)" stroke="rgb(60, 60, 60)" stroke-width="1px" opacity="0.25"></line></g><g><line x1="0" y1="178" x2="296" y2="178" fill="rgb(0, 0, 0)" stroke="rgb(60, 60, 60)" stroke-width="1px" opacity="0.25"></line><line x1="0" y1="155.75" x2="296" y2="155.75" fill="rgb(0, 0, 0)" stroke="rgb(60, 60, 60)" stroke-width="1px" opacity="0.25"></line><line x1="0" y1="133.5" x2="296" y2="133.5" fill="rgb(0, 0, 0)" stroke="rgb(60, 60, 60)" stroke-width="1px" opacity="0.25"></line><line x1="0" y1="111.25" x2="296" y2="111.25" fill="rgb(0, 0, 0)" stroke="rgb(60, 60, 60)" stroke-width="1px" opacity="0.25"></line><line x1="0" y1="89" x2="296" y2="89" fill="rgb(0, 0, 0)" stroke="rgb(60, 60, 60)" stroke-width="1px" opacity="0.25"></line><line x1="0" y1="66.75" x2="296" y2="66.75" fill="rgb(0, 0, 0)" stroke="rgb(60, 60, 60)" stroke-width="1px" opacity="0.25"></line><line x1="0" y1="44.5" x2="296" y2="44.5" fill="rgb(0, 0, 0)" stroke="rgb(60, 60, 60)" stroke-width="1px" opacity="0.25"></line><line x1="0" y1="22.25" x2="296" y2="22.25" fill="rgb(0, 0, 0)" stroke="rgb(60, 60, 60)" stroke-width="1px" opacity="0.25"></line><line x1="0" y1="0" x2="296" y2="0" fill="rgb(0, 0, 0)" stroke="rgb(60, 60, 60)" stroke-width="1px" opacity="0.25"></line></g></g></g><g><g><line x1="0" y1="267" x2="296" y2="267" fill="rgb(0, 0, 0)" stroke="rgb(153, 153, 153)" stroke-width="1.5px"></line></g></g><g><g><line x1="37" y1="0" x2="37" y2="178" fill="rgb(0, 0, 0)" stroke="rgb(153, 153, 153)" stroke-width="1.5px"></line></g></g><g><g><g><g><g><path stroke="rgb(0, 119, 187)" stroke-width="2px" d="M46.453500000000005,-11.550284767150885L47.804,13.443653297424333L49.1545,30.809880828857416L50.505,52.428090286254886L51.8555,79.6993974685669L53.205999999999996,92.16548824310303L54.5565,102.19929237365723L55.907,107.11744003295898L57.2575,132.1799162864685L58.608000000000004,124.50761985778809L59.9585,132.2348232269287L61.309,135.8538263320923L62.6595,147.77224817276002L64.01,155.2011258125305L65.3605,143.5947373390198L66.711,151.75710515975953L68.0615,139.61807098388672L69.41199999999999,144.1887321472168L70.7625,149.58545036315917L72.113,141.96324834823608L73.4635,149.01666402816772L74.814,148.70931587219238L76.1645,146.65548734664918L77.515,142.2660725593567L78.8655,138.56055431365968L80.21600000000001,136.27704858779907L81.56649999999999,141.37770729064943L82.917,132.66721220016478L84.2675,141.33298559188842L85.618,141.999338054657L86.96849999999999,138.28127498626708L88.319,124.70939798355103L89.66950000000001,138.6868682861328L91.02,135.80992794036865L92.3705,137.709721660614L93.721,129.1417350769043L95.0715,147.86489992141725L96.422,119.83118495941162L97.77250000000001,128.86449279785157L99.12299999999999,131.09262475967407L100.4735,124.93124952316285L101.824,133.08002004623413L103.1745,137.1583860397339L104.525,124.25545024871826L105.8755,129.04290428161622L107.226,127.10241203308105L108.5765,139.14240322113037L109.927,138.47376756668092L111.27749999999999,125.05028953552247L112.628,133.4611433029175L113.9785,126.07090167999267L115.329,123.41883449554443L116.6795,124.85912952423095L118.03,116.65941581726074L119.38050000000001,120.29761810302735L120.731,116.08875370025635L122.0815,130.70081548690797L123.43199999999999,130.5452953338623L124.7825,129.16267423629762L126.133,139.26063690185546L127.4835,134.55682916641234L128.834,130.52301511764526L130.18449999999999,131.38236093521118L131.535,128.13338766098022L132.8855,124.18658103942872L134.236,135.80596418380736L135.5865,120.0546661376953L136.937,119.9214262008667L138.2875,136.0039737701416L139.638,138.95305109024048L140.98850000000002,141.37721500396728L142.339,126.14287738800049L143.6895,128.33292503356932L145.04,126.37375135421753L146.3905,119.59271450042725L147.74099999999999,115.05877113342285L149.0915,123.55365314483643L150.442,135.22336835861205L151.7925,131.15133419036866L153.143,125.04009580612183L154.4935,120.4476806640625L155.844,140.43906936645507L157.1945,132.9822841644287L158.54500000000002,135.264457321167L159.89550000000003,129.40881757736207L161.24599999999998,137.54687662124633L162.5965,126.95629625320434L163.947,130.2034616470337L165.2975,125.58206100463867L166.648,126.46134443283081L167.99849999999998,131.33741006851196L169.349,129.18390197753905L170.6995,123.78725166320801L172.05,130.09295177459717L173.4005,127.56556043624877L174.751,139.73540496826172L176.10150000000002,127.11867446899414L177.452,134.67998571395873L178.80249999999998,134.62907648086548L180.153,126.10770435333252L181.5035,136.62137765884398L182.854,128.22064971923828L184.20450000000002,114.28231620788574L185.55499999999998,128.20718822479247L186.9055,129.82919645309448L188.256,111.72334213256836L189.6065,131.254638004303L190.957,130.3057469367981L192.3075,144.60593662261962L193.658,147.77709465026857L195.0085,131.2436803817749L196.359,134.5911364555359L197.7095,124.09735832214355L199.06,117.20490341186523L200.4105,134.22908506393432L201.76100000000002,142.38049526214598L203.11149999999998,123.84748039245605L204.462,132.21280612945557L205.8125,119.01334400177002L207.163,131.98160963058473L208.51350000000002,141.64234533309937L209.86399999999998,122.77572135925293L211.2145,138.57809839248657L212.565,129.5058235168457L213.9155,125.74797859191895L215.266,140.1292088508606L216.6165,114.29788265228271L217.967,143.2046850204468L219.3175,129.83489170074463L220.668,132.46085920333863L222.0185,114.91536293029785L223.369,131.41476697921752L224.7195,139.53642778396608L226.07000000000002,132.2099118232727L227.42049999999998,132.3523184776306L228.771,136.94226369857788L230.1215,115.89112606048585L231.472,131.46624488830565L232.82250000000002,123.86087398529052L234.173,121.24827461242675L235.52349999999998,133.2808051109314L236.874,119.84848289489746L238.2245,140.64925880432128L239.575,132.6660918235779L240.9255,128.13705434799195L242.276,127.25610733032227L243.62650000000002,134.31150913238525L244.977,126.76570491790771L246.3275,134.2703013420105L247.678,129.95372800827028L249.0285,156.44592361450196L250.37900000000002,129.14352598190308L251.72949999999997,132.9283702850342L253.07999999999998,125.44059648513795L254.4305,144.93819618225098L255.781,122.39260349273681L257.13149999999996,132.2996947288513L258.48199999999997,129.0085121154785L259.8325,115.43375778198242L261.183,126.95605010986328L262.5335,137.06603136062623L263.884,134.85013017654418L265.23449999999997,125.08355283737183L266.585,124.54043331146241L267.9355,130.66470880508422L269.286,126.8132360458374L270.6365,144.22579793930055L271.987,131.74930124282838L273.33750000000003,123.80792770385742L274.688,124.19277706146241L276.0385,124.56683006286622L277.389,138.36476850509644L278.7395,132.41487283706664" style="fill: none;" fill="none"></path></g></g></g></g></g></g><g transform="translate(34, 178)" clip-path="url(#clip_1)"><clipPath id="clip_1"><rect width="295" height="21"></rect></clipPath><g><g><line x1="0" y1="0" x2="0" y2="5" style="visibility: inherit;" fill="rgb(0, 0, 0)" stroke="rgb(204, 204, 204)" stroke-width="1px"></line><line x1="37" y1="0" x2="37" y2="5" style="visibility: inherit;" fill="rgb(0, 0, 0)" stroke="rgb(204, 204, 204)" stroke-width="1px"></line><line x1="74" y1="0" x2="74" y2="5" style="visibility: inherit;" fill="rgb(0, 0, 0)" stroke="rgb(204, 204, 204)" stroke-width="1px"></line><line x1="111" y1="0" x2="111" y2="5" style="visibility: inherit;" fill="rgb(0, 0, 0)" stroke="rgb(204, 204, 204)" stroke-width="1px"></line><line x1="148" y1="0" x2="148" y2="5" style="visibility: inherit;" fill="rgb(0, 0, 0)" stroke="rgb(204, 204, 204)" stroke-width="1px"></line><line x1="185" y1="0" x2="185" y2="5" style="visibility: inherit;" fill="rgb(0, 0, 0)" stroke="rgb(204, 204, 204)" stroke-width="1px"></line><line x1="222" y1="0" x2="222" y2="5" style="visibility: inherit;" fill="rgb(0, 0, 0)" stroke="rgb(204, 204, 204)" stroke-width="1px"></line><line x1="259" y1="0" x2="259" y2="5" style="visibility: inherit;" fill="rgb(0, 0, 0)" stroke="rgb(204, 204, 204)" stroke-width="1px"></line><line x1="296" y1="0" x2="296" y2="5" style="visibility: inherit;" fill="rgb(0, 0, 0)" stroke="rgb(204, 204, 204)" stroke-width="1px"></line></g><g transform="translate(0, 8)"><text x="0" y="0" dx="0em" dy="0.95em" style="text-anchor: middle; visibility: hidden; font-family: &quot;Helvetica Neue&quot;, sans-serif; font-size: 12px; font-weight: 200;" fill="rgb(50, 49, 63)" stroke="none" stroke-width="1px">-2k</text><text x="37" y="0" dx="0em" dy="0.95em" style="text-anchor: middle; visibility: inherit; font-family: &quot;Helvetica Neue&quot;, sans-serif; font-size: 12px; font-weight: 200;" fill="rgb(50, 49, 63)" stroke="none" stroke-width="1px">0</text><text x="74" y="0" dx="0em" dy="0.95em" style="text-anchor: middle; visibility: inherit; font-family: &quot;Helvetica Neue&quot;, sans-serif; font-size: 12px; font-weight: 200;" fill="rgb(50, 49, 63)" stroke="none" stroke-width="1px">2k</text><text x="111" y="0" dx="0em" dy="0.95em" style="text-anchor: middle; visibility: inherit; font-family: &quot;Helvetica Neue&quot;, sans-serif; font-size: 12px; font-weight: 200;" fill="rgb(50, 49, 63)" stroke="none" stroke-width="1px">4k</text><text x="148" y="0" dx="0em" dy="0.95em" style="text-anchor: middle; visibility: inherit; font-family: &quot;Helvetica Neue&quot;, sans-serif; font-size: 12px; font-weight: 200;" fill="rgb(50, 49, 63)" stroke="none" stroke-width="1px">6k</text><text x="185" y="0" dx="0em" dy="0.95em" style="text-anchor: middle; visibility: inherit; font-family: &quot;Helvetica Neue&quot;, sans-serif; font-size: 12px; font-weight: 200;" fill="rgb(50, 49, 63)" stroke="none" stroke-width="1px">8k</text><text x="222" y="0" dx="0em" dy="0.95em" style="text-anchor: middle; visibility: inherit; font-family: &quot;Helvetica Neue&quot;, sans-serif; font-size: 12px; font-weight: 200;" fill="rgb(50, 49, 63)" stroke="none" stroke-width="1px">10k</text><text x="259" y="0" dx="0em" dy="0.95em" style="text-anchor: middle; visibility: inherit; font-family: &quot;Helvetica Neue&quot;, sans-serif; font-size: 12px; font-weight: 200;" fill="rgb(50, 49, 63)" stroke="none" stroke-width="1px">12k</text><text x="296" y="0" dx="0em" dy="0.95em" style="text-anchor: middle; visibility: hidden; font-family: &quot;Helvetica Neue&quot;, sans-serif; font-size: 12px; font-weight: 200;" fill="rgb(50, 49, 63)" stroke="none" stroke-width="1px">14k</text></g><line x1="0" y1="0" x2="296" y2="0" fill="rgb(0, 0, 0)" stroke="rgb(204, 204, 204)" stroke-width="1px"></line></g></g></g></g></svg>