<svg viewBox="0 0 330 200" xmlns="http://www.w3.org/2000/svg"><g><g><g><g><g><line x1="34" y1="178" x2="29" y2="178" style="visibility: inherit;" fill="rgb(0, 0, 0)" stroke="rgb(204, 204, 204)" stroke-width="1px"></line><line x1="34" y1="155.75" x2="29" y2="155.75" style="visibility: inherit;" fill="rgb(0, 0, 0)" stroke="rgb(204, 204, 204)" stroke-width="1px"></line><line x1="34" y1="133.5" x2="29" y2="133.5" style="visibility: inherit;" fill="rgb(0, 0, 0)" stroke="rgb(204, 204, 204)" stroke-width="1px"></line><line x1="34" y1="111.25" x2="29" y2="111.25" style="visibility: inherit;" fill="rgb(0, 0, 0)" stroke="rgb(204, 204, 204)" stroke-width="1px"></line><line x1="34" y1="89" x2="29" y2="89" style="visibility: inherit;" fill="rgb(0, 0, 0)" stroke="rgb(204, 204, 204)" stroke-width="1px"></line><line x1="34" y1="66.75" x2="29" y2="66.75" style="visibility: inherit;" fill="rgb(0, 0, 0)" stroke="rgb(204, 204, 204)" stroke-width="1px"></line><line x1="34" y1="44.5" x2="29" y2="44.5" style="visibility: inherit;" fill="rgb(0, 0, 0)" stroke="rgb(204, 204, 204)" stroke-width="1px"></line><line x1="34" y1="22.25" x2="29" y2="22.25" style="visibility: inherit;" fill="rgb(0, 0, 0)" stroke="rgb(204, 204, 204)" stroke-width="1px"></line><line x1="34" y1="0" x2="29" y2="0" style="visibility: inherit;" fill="rgb(0, 0, 0)" stroke="rgb(204, 204, 204)" stroke-width="1px"></line></g><g transform="translate(24, 0)"><text x="0" y="178" dx="0em" dy="0.3em" style="text-anchor: end; visibility: hidden; font-family: &quot;Helvetica Neue&quot;, sans-serif; font-size: 12px; font-weight: 200;" fill="rgb(50, 49, 63)" stroke="none" stroke-width="1px">20</text><text x="0" y="155.75" dx="0em" dy="0.3em" style="text-anchor: end; visibility: inherit; font-family: &quot;Helvetica Neue&quot;, sans-serif; font-size: 12px; font-weight: 200;" fill="rgb(50, 49, 63)" stroke="none" stroke-width="1px">25</text><text x="0" y="133.5" dx="0em" dy="0.3em" style="text-anchor: end; visibility: hidden; font-family: &quot;Helvetica Neue&quot;, sans-serif; font-size: 12px; font-weight: 200;" fill="rgb(50, 49, 63)" stroke="none" stroke-width="1px">30</text><text x="0" y="111.25" dx="0em" dy="0.3em" style="text-anchor: end; visibility: inherit; font-family: &quot;Helvetica Neue&quot;, sans-serif; font-size: 12px; font-weight: 200;" fill="rgb(50, 49, 63)" stroke="none" stroke-width="1px">35</text><text x="0" y="89" dx="0em" dy="0.3em" style="text-anchor: end; visibility: hidden; font-family: &quot;Helvetica Neue&quot;, sans-serif; font-size: 12px; font-weight: 200;" fill="rgb(50, 49, 63)" stroke="none" stroke-width="1px">40</text><text x="0" y="66.75" dx="0em" dy="0.3em" style="text-anchor: end; visibility: inherit; font-family: &quot;Helvetica Neue&quot;, sans-serif; font-size: 12px; font-weight: 200;" fill="rgb(50, 49, 63)" stroke="none" stroke-width="1px">45</text><text x="0" y="44.5" dx="0em" dy="0.3em" style="text-anchor: end; visibility: hidden; font-family: &quot;Helvetica Neue&quot;, sans-serif; font-size: 12px; font-weight: 200;" fill="rgb(50, 49, 63)" stroke="none" stroke-width="1px">50</text><text x="0" y="22.25" dx="0em" dy="0.3em" style="text-anchor: end; visibility: inherit; font-family: &quot;Helvetica Neue&quot;, sans-serif; font-size: 12px; font-weight: 200;" fill="rgb(50, 49, 63)" stroke="none" stroke-width="1px">55</text><text x="0" y="0" dx="0em" dy="0.3em" style="text-anchor: end; visibility: hidden; font-family: &quot;Helvetica Neue&quot;, sans-serif; font-size: 12px; font-weight: 200;" fill="rgb(50, 49, 63)" stroke="none" stroke-width="1px">60</text></g><line x1="34" y1="0" x2="34" y2="178" fill="rgb(0, 0, 0)" stroke="rgb(204, 204, 204)" stroke-width="1px"></line></g></g><g transform="translate(34, 0)" clip-path="url(#clip_0)"><clipPath id="clip_0"><rect width="295" height="177"></rect></clipPath><g><g><g><line x1="0" y1="0" x2="0" y2="178" fill="rgb(0, 0, 0)" stroke="rgb(60, 60, 60)" stroke-width="1px" opacity="0.25"></line><line x1="26.90909090909091" y1="0" x2="26.90909090909091" y2="178" fill="rgb(0, 0, 0)" stroke="rgb(60, 60, 60)" stroke-width="1px" opacity="0.25"></line><line x1="53.81818181818182" y1="0" x2="53.81818181818182" y2="178" fill="rgb(0, 0, 0)" stroke="rgb(60, 60, 60)" stroke-width="1px" opacity="0.25"></line><line x1="80.72727272727272" y1="0" x2="80.72727272727272" y2="178" fill="rgb(0, 0, 0)" stroke="rgb(60, 60, 60)" stroke-width="1px" opacity="0.25"></line><line x1="107.63636363636364" y1="0" x2="107.63636363636364" y2="178" fill="rgb(0, 0, 0)" stroke="rgb(60, 60, 60)" stroke-width="1px" opacity="0.25"></line><line x1="134.54545454545453" y1="0" x2="134.54545454545453" y2="178" fill="rgb(0, 0, 0)" stroke="rgb(60, 60, 60)" stroke-width="1px" opacity="0.25"></line><line x1="161.45454545454544" y1="0" x2="161.45454545454544" y2="178" fill="rgb(0, 0, 0)" stroke="rgb(60, 60, 60)" stroke-width="1px" opacity="0.25"></line><line x1="188.36363636363637" y1="0" x2="188.36363636363637" y2="178" fill="rgb(0, 0, 0)" stroke="rgb(60, 60, 60)" stroke-width="1px" opacity="0.25"></line><line x1="215.27272727272728" y1="0" x2="215.27272727272728" y2="178" fill="rgb(0, 0, 0)" stroke="rgb(60, 60, 60)" stroke-width="1px" opacity="0.25"></line><line x1="242.1818181818182" y1="0" x2="242.1818181818182" y2="178" fill="rgb(0, 0, 0)" stroke="rgb(60, 60, 60)" stroke-width="1px" opacity="0.25"></line><line x1="269.09090909090907" y1="0" x2="269.09090909090907" y2="178" fill="rgb(0, 0, 0)" stroke="rgb(60, 60, 60)" stroke-width="1px" opacity="0.25"></line><line x1="296" y1="0" x2="296" y2="178" fill="rgb(0, 0, 0)" stroke="rgb(60, 60, 60)" stroke-width="1px" opacity="0.25"></line></g><g><line x1="0" y1="178" x2="296" y2="178" fill="rgb(0, 0, 0)" stroke="rgb(60, 60, 60)" stroke-width="1px" opacity="0.25"></line><line x1="0" y1="155.75" x2="296" y2="155.75" fill="rgb(0, 0, 0)" stroke="rgb(60, 60, 60)" stroke-width="1px" opacity="0.25"></line><line x1="0" y1="133.5" x2="296" y2="133.5" fill="rgb(0, 0, 0)" stroke="rgb(60, 60, 60)" stroke-width="1px" opacity="0.25"></line><line x1="0" y1="111.25" x2="296" y2="111.25" fill="rgb(0, 0, 0)" stroke="rgb(60, 60, 60)" stroke-width="1px" opacity="0.25"></line><line x1="0" y1="89" x2="296" y2="89" fill="rgb(0, 0, 0)" stroke="rgb(60, 60, 60)" stroke-width="1px" opacity="0.25"></line><line x1="0" y1="66.75" x2="296" y2="66.75" fill="rgb(0, 0, 0)" stroke="rgb(60, 60, 60)" stroke-width="1px" opacity="0.25"></line><line x1="0" y1="44.5" x2="296" y2="44.5" fill="rgb(0, 0, 0)" stroke="rgb(60, 60, 60)" stroke-width="1px" opacity="0.25"></line><line x1="0" y1="22.25" x2="296" y2="22.25" fill="rgb(0, 0, 0)" stroke="rgb(60, 60, 60)" stroke-width="1px" opacity="0.25"></line><line x1="0" y1="0" x2="296" y2="0" fill="rgb(0, 0, 0)" stroke="rgb(60, 60, 60)" stroke-width="1px" opacity="0.25"></line></g></g></g><g><g><line x1="0" y1="267" x2="296" y2="267" fill="rgb(0, 0, 0)" stroke="rgb(153, 153, 153)" stroke-width="1.5px"></line></g></g><g><g><line x1="26.90909090909091" y1="0" x2="26.90909090909091" y2="178" fill="rgb(0, 0, 0)" stroke="rgb(153, 153, 153)" stroke-width="1.5px"></line></g></g><g><g><g><g><g><path stroke="rgb(204, 51, 17)" stroke-width="2px" d="M38.69527272727272,-10.34374103546142L40.65963636363636,8.481573295593279L42.623999999999995,27.516160392761236L44.58836363636363,43.52551002502443L46.552727272727275,73.07783603668213L48.51709090909091,89.56422843933105L50.48145454545455,94.63968715667725L52.44581818181818,102.62527313232421L54.41018181818182,113.68006286621095L56.374545454545455,125.4531922340393L58.33890909090909,138.37480096817018L60.30327272727273,142.10752229690553L62.26763636363636,138.69722328186035L64.232,138.1349639892578L66.19636363636363,137.72080659866333L68.16072727272727,148.5185802459717L70.1250909090909,137.78080615997314L72.08945454545454,151.08765468597412L74.05381818181817,150.4317590713501L76.01818181818183,153.5507601737976L77.98254545454544,146.5094903945923L79.94690909090909,129.64182195663452L81.91127272727272,134.51484899520875L83.87563636363636,138.08176307678224L85.83999999999999,141.2435252189636L87.80436363636363,127.80712041854858L89.76872727272726,135.91360521316528L91.7330909090909,137.50768041610718L93.69745454545453,132.81525468826294L95.66181818181818,144.73554382324218L97.62618181818182,145.55170421600343L99.59054545454545,132.33303442001343L101.55490909090909,129.79731664657592L103.51927272727272,127.24325695037842L105.48363636363636,136.61989231109618L107.448,134.13401432037352L109.41236363636364,121.0522596359253L111.37672727272727,128.80529108047486L113.34109090909091,116.75863704681396L115.30545454545454,127.29250259399414L117.26981818181818,127.81937665939331L119.23418181818181,138.4799041748047L121.19854545454545,130.9514573097229L123.16290909090908,133.41442699432372L125.12727272727273,130.6074168205261L127.09163636363635,132.0919412612915L129.056,110.15126705169678L131.02036363636364,132.42668771743774L132.98472727272727,122.78650074005127L134.94909090909093,125.16859111785888L136.91345454545456,133.08712425231934L138.87781818181818,116.4444393157959L140.8421818181818,124.94978666305542L142.80654545454547,123.32816886901855L144.7709090909091,129.98680458068847L146.73527272727273,126.18186140060425L148.69963636363636,122.09446449279785L150.66400000000002,115.98391361236573L152.62836363636364,134.3554244995117L154.59272727272725,119.26283149719238L156.5570909090909,120.00009021759033L158.52145454545456,124.7816707611084L160.4858181818182,121.98235893249512L162.45018181818185,127.51931943893433L164.41454545454545,123.60559787750245L166.37890909090908,130.42312335968018L168.34327272727273,123.1601972579956L170.3076363636364,116.52984256744385L172.272,123.47347831726074L174.23636363636362,137.01028413772582L176.20072727272728,122.4318166732788L178.1650909090909,123.05951614379883L180.12945454545454,120.43863277435302L182.09381818181816,123.89182014465332L184.05818181818182,115.44363746643066L186.02254545454545,126.76319255828858L187.98690909090908,132.789324760437L189.9512727272727,126.83185806274415L191.91563636363637,128.9165563583374L193.88,126.1820990562439L195.84436363636365,120.0405086517334L197.80872727272725,125.10787858963013L199.7730909090909,132.31003274917603L201.73745454545454,115.27305164337159L203.7018181818182,129.84667263031005L205.6661818181818,112.06621131896974L207.63054545454546,130.98084173202514L209.59490909090908,119.48868923187256L211.55927272727274,118.48213272094726L213.52363636363634,124.35567302703858L215.488,128.14834299087525L217.45236363636363,132.17824420928955L219.4167272727273,117.52449932098389L221.3810909090909,126.50357074737549L223.34545454545454,117.94844303131103L225.30981818181817,120.90846099853516L227.27418181818183,117.53178176879882L229.23854545454546,118.40015850067138L231.2029090909091,126.0987413406372L233.16727272727272,125.86082258224488L235.13163636363637,125.05186824798584L237.096,130.26105070114136L239.06036363636363,124.20992221832276L241.02472727272726,122.38128089904785L242.98909090909092,123.05389728546143L244.95345454545455,121.79547672271728L246.91781818181818,113.91904258728027L248.8821818181818,117.27292385101319L250.84654545454546,121.3712953567505L252.8109090909091,116.05840167999267L254.77527272727272,120.2534990310669L256.73963636363635,118.01123504638672L258.704,117.95200786590576L260.66836363636367,117.99534606933594L262.63272727272727,118.92379875183106L264.5970909090909,133.04292030334472L266.5614545454545,126.33258600234986L268.5258181818182,127.17819023132324L270.49018181818184,122.67449703216553L272.45454545454544,128.12091073989868" style="fill: none;" fill="none"></path></g></g></g></g></g></g><g transform="translate(34, 178)" clip-path="url(#clip_1)"><clipPath id="clip_1"><rect width="295" height="21"></rect></clipPath><g><g><line x1="0" y1="0" x2="0" y2="5" style="visibility: inherit;" fill="rgb(0, 0, 0)" stroke="rgb(204, 204, 204)" stroke-width="1px"></line><line x1="26.90909090909091" y1="0" x2="26.90909090909091" y2="5" style="visibility: inherit;" fill="rgb(0, 0, 0)" stroke="rgb(204, 204, 204)" stroke-width="1px"></line><line x1="53.81818181818182" y1="0" x2="53.81818181818182" y2="5" style="visibility: inherit;" fill="rgb(0, 0, 0)" stroke="rgb(204, 204, 204)" stroke-width="1px"></line><line x1="80.72727272727272" y1="0" x2="80.72727272727272" y2="5" style="visibility: inherit;" fill="rgb(0, 0, 0)" stroke="rgb(204, 204, 204)" stroke-width="1px"></line><line x1="107.63636363636364" y1="0" x2="107.63636363636364" y2="5" style="visibility: inherit;" fill="rgb(0, 0, 0)" stroke="rgb(204, 204, 204)" stroke-width="1px"></line><line x1="134.54545454545453" y1="0" x2="134.54545454545453" y2="5" style="visibility: inherit;" fill="rgb(0, 0, 0)" stroke="rgb(204, 204, 204)" stroke-width="1px"></line><line x1="161.45454545454544" y1="0" x2="161.45454545454544" y2="5" style="visibility: inherit;" fill="rgb(0, 0, 0)" stroke="rgb(204, 204, 204)" stroke-width="1px"></line><line x1="188.36363636363637" y1="0" x2="188.36363636363637" y2="5" style="visibility: inherit;" fill="rgb(0, 0, 0)" stroke="rgb(204, 204, 204)" stroke-width="1px"></line><line x1="215.27272727272728" y1="0" x2="215.27272727272728" y2="5" style="visibility: inherit;" fill="rgb(0, 0, 0)" stroke="rgb(204, 204, 204)" stroke-width="1px"></line><line x1="242.1818181818182" y1="0" x2="242.1818181818182" y2="5" style="visibility: inherit;" fill="rgb(0, 0, 0)" stroke="rgb(204, 204, 204)" stroke-width="1px"></line><line x1="269.09090909090907" y1="0" x2="269.09090909090907" y2="5" style="visibility: inherit;" fill="rgb(0, 0, 0)" stroke="rgb(204, 204, 204)" stroke-width="1px"></line><line x1="296" y1="0" x2="296" y2="5" style="visibility: inherit;" fill="rgb(0, 0, 0)" stroke="rgb(204, 204, 204)" stroke-width="1px"></line></g><g transform="translate(0, 8)"><text x="0" y="0" dx="0em" dy="0.95em" style="text-anchor: middle; visibility: hidden; font-family: &quot;Helvetica Neue&quot;, sans-serif; font-size: 12px; font-weight: 200;" fill="rgb(50, 49, 63)" stroke="none" stroke-width="1px">-1k</text><text x="26.90909090909091" y="0" dx="0em" dy="0.95em" style="text-anchor: middle; visibility: inherit; font-family: &quot;Helvetica Neue&quot;, sans-serif; font-size: 12px; font-weight: 200;" fill="rgb(50, 49, 63)" stroke="none" stroke-width="1px">0</text><text x="53.81818181818182" y="0" dx="0em" dy="0.95em" style="text-anchor: middle; visibility: inherit; font-family: &quot;Helvetica Neue&quot;, sans-serif; font-size: 12px; font-weight: 200;" fill="rgb(50, 49, 63)" stroke="none" stroke-width="1px">1k</text><text x="80.72727272727272" y="0" dx="0em" dy="0.95em" style="text-anchor: middle; visibility: inherit; font-family: &quot;Helvetica Neue&quot;, sans-serif; font-size: 12px; font-weight: 200;" fill="rgb(50, 49, 63)" stroke="none" stroke-width="1px">2k</text><text x="107.63636363636364" y="0" dx="0em" dy="0.95em" style="text-anchor: middle; visibility: inherit; font-family: &quot;Helvetica Neue&quot;, sans-serif; font-size: 12px; font-weight: 200;" fill="rgb(50, 49, 63)" stroke="none" stroke-width="1px">3k</text><text x="134.54545454545453" y="0" dx="0em" dy="0.95em" style="text-anchor: middle; visibility: inherit; font-family: &quot;Helvetica Neue&quot;, sans-serif; font-size: 12px; font-weight: 200;" fill="rgb(50, 49, 63)" stroke="none" stroke-width="1px">4k</text><text x="161.45454545454544" y="0" dx="0em" dy="0.95em" style="text-anchor: middle; visibility: inherit; font-family: &quot;Helvetica Neue&quot;, sans-serif; font-size: 12px; font-weight: 200;" fill="rgb(50, 49, 63)" stroke="none" stroke-width="1px">5k</text><text x="188.36363636363637" y="0" dx="0em" dy="0.95em" style="text-anchor: middle; visibility: inherit; font-family: &quot;Helvetica Neue&quot;, sans-serif; font-size: 12px; font-weight: 200;" fill="rgb(50, 49, 63)" stroke="none" stroke-width="1px">6k</text><text x="215.27272727272728" y="0" dx="0em" dy="0.95em" style="text-anchor: middle; visibility: inherit; font-family: &quot;Helvetica Neue&quot;, sans-serif; font-size: 12px; font-weight: 200;" fill="rgb(50, 49, 63)" stroke="none" stroke-width="1px">7k</text><text x="242.1818181818182" y="0" dx="0em" dy="0.95em" style="text-anchor: middle; visibility: inherit; font-family: &quot;Helvetica Neue&quot;, sans-serif; font-size: 12px; font-weight: 200;" fill="rgb(50, 49, 63)" stroke="none" stroke-width="1px">8k</text><text x="269.09090909090907" y="0" dx="0em" dy="0.95em" style="text-anchor: middle; visibility: inherit; font-family: &quot;Helvetica Neue&quot;, sans-serif; font-size: 12px; font-weight: 200;" fill="rgb(50, 49, 63)" stroke="none" stroke-width="1px">9k</text><text x="296" y="0" dx="0em" dy="0.95em" style="text-anchor: middle; visibility: hidden; font-family: &quot;Helvetica Neue&quot;, sans-serif; font-size: 12px; font-weight: 200;" fill="rgb(50, 49, 63)" stroke="none" stroke-width="1px">10k</text></g><line x1="0" y1="0" x2="296" y2="0" fill="rgb(0, 0, 0)" stroke="rgb(204, 204, 204)" stroke-width="1px"></line></g></g></g></g></svg>